# xmcd CD database file
#
# Track frame offsets:
#	150
#	6259
#	24532
#	39297
#	65733
#	93695
#	123983
#	146180
#	183446
#	210732
#	231291
#	253799
#	282522
#	305614
#
# Disc length: 4421 seconds
#
# Revision: 0
# Processed by: cddbd v1.5.1PL0 Copyright (c) Steve Scherf et al.
# Submitted via: CDex 1.51
#
DISCID=d411430e
DTITLE=Bill Evans - The Bill Evans Story - Riverside Years
DYEAR=2004
DGENRE=Jazz
TTITLE0=Waltz for Debby
TTITLE1=Five
TTITLE2=Peri's Scope
TTITLE3=Nardis
TTITLE4=Gloria's Step
TTITLE5=Peace Piece
TTITLE6=Know What I Mean?
TTITLE7=Interplay
TTITLE8=Time Remembered
TTITLE9=Santa Claus is Coming to Town
TTITLE10=How My Heart Sings
TTITLE11=34 Skidoo
TTITLE12=Very Early
TTITLE13=Re: Person I Knew
EXTD=YEAR: 2004
EXTT0=
EXTT1=
EXTT2=
EXTT3=
EXTT4=
EXTT5=
EXTT6=
EXTT7=
EXTT8=
EXTT9=
EXTT10=
EXTT11=
EXTT12=
EXTT13=
PLAYORDER=
